<?xml version="1.0" encoding="UTF-8"?>
<svg version="1.1" viewBox="0 0 24.322 25.975" xmlns="http://www.w3.org/2000/svg">
 <path d="m12 25.74a8.614 8.614 0 0 1-0.226-0.686c-0.639-2.119-1.825-4.265-3.81-6.896-0.746-0.988-1.449-1.863-3.347-4.172-2.199-2.672-2.829-3.528-3.465-4.709-0.375-0.696-0.764-1.758-0.892-2.434-0.128-0.675-0.13-1.778-5e-3 -2.352 0.511-2.337 2.587-4.1 5.069-4.306 2.843-0.235 5.261 1.202 6.532 3.88l0.284 0.598 0.214-0.472a6.567 6.567 0 0 1 1.138-1.77c1.314-1.508 2.877-2.247 4.76-2.25 0.843 0 1.326 0.07 2.045 0.297 1.075 0.34 1.884 0.87 2.605 1.706 1.878 2.177 1.656 5.144-0.658 8.778-0.54 0.848-1.513 2.102-2.853 3.675-1.542 1.81-2.295 2.73-3.067 3.745-1.85 2.432-3.093 4.643-3.777 6.712a6.04 6.04 0 0 1-0.243 0.654c-0.068 0.102-0.249 0.103-0.305 2e-3z" fill="#f00" stroke="#fff" stroke-width=".32"/>
</svg>
