<?xml version="1.0" encoding="UTF-8"?>
<svg version="1.1" viewBox="0 0 24 25.654" xmlns="http://www.w3.org/2000/svg">
 <path d="M11.838 25.579a8.614 8.614 0 0 1-.226-.686c-.639-2.119-1.825-4.265-3.81-6.896-.746-.988-1.449-1.863-3.347-4.172C2.256 11.153 1.626 10.297.99 9.116.615 8.42.226 7.358.098 6.682-.03 6.007-.032 4.904.093 4.33.604 1.993 2.68.23 5.162.024c2.843-.235 5.261 1.202 6.532 3.88l.284.598.214-.472a6.567 6.567 0 0 1 1.138-1.77C14.644.752 16.207.013 18.09.01c.843 0 1.326.07 2.045.297 1.075.34 1.884.87 2.605 1.706 1.878 2.177 1.656 5.144-.658 8.778-.54.848-1.513 2.102-2.853 3.675-1.542 1.81-2.295 2.73-3.067 3.745-1.85 2.432-3.093 4.643-3.777 6.712a6.04 6.04 0 0 1-.243.654c-.068.102-.249.103-.305.002z" fill="#d02525"/>
</svg>
